<svg width="2721" height="2159" viewBox="0 0 2721 2159" fill="none" xmlns="http://www.w3.org/2000/svg">
<path d="M894 1347.41C1000 -168.59 458.215 -161.554 0 200.414C284.526 172.463 258.038 347.814 246 624.414C230.591 1100.03 391.54 1244.62 894 1347.41Z" fill="#009FB3"/>
<path d="M1800.57 1734C1906.52 -216.96 1364.99 -207.905 907 257.915C1191.39 221.944 1164.91 447.605 1152.88 803.564C1137.48 1415.64 1298.35 1601.71 1800.57 1734Z" fill="#009FB3"/>
<path d="M2707.57 2159C2813.52 -270.136 2271.99 -258.863 1814 321.129C2098.39 276.342 2071.91 557.312 2059.88 1000.52C2044.48 1762.61 2205.35 1994.28 2707.57 2159Z" fill="#009FB3"/>
</svg>
