<svg id="Layer_1" data-name="Layer 1" xmlns="http://www.w3.org/2000/svg" viewBox="0 0 250 250"><defs><style>.cls-1{fill:#fc0;}.cls-2{fill:#fffffd;}.cls-3{font-size:31.99px;fill:#6b6b6b;font-family:AveriaSansLibre-Regular, Averia Sans Libre;}.cls-4{letter-spacing:-0.01em;}.cls-5{letter-spacing:0em;}</style></defs><path class="cls-1" d="M50,32.11s20.67,17,48.6,13.13,40-17.31,68.72-15.92C190.5,30.44,200,44.68,200,44.68L183.24,164.8s-11.17-5.87-29.05-1.4-43.58,17-63.41,18.44-26.53-4.47-26.53-4.47Z"/><path class="cls-2" d="M58.85,157.52a7.4,7.4,0,0,1-2.41-14.4c.29-.1,30.39-11.27,47.79-53.09a7.42,7.42,0,0,1,9.25-4.16c2.85,1,27.8,10.11,26.45,27.39-1.21,15.56-24.34,28.57-36.94,31.48a7.25,7.25,0,0,1-1.67.19,7.4,7.4,0,0,1-1.66-14.61c10.55-2.44,25.09-12.82,25.52-18.22.18-2.41-4.07-6.28-10.34-9.54-20.49,42.91-52.25,54.11-53.61,54.57A7.42,7.42,0,0,1,58.85,157.52Z"/><path class="cls-1" d="M111.06,87.61a5.18,5.18,0,0,1,1.72.29c2.69.92,26.24,9.52,25,25.19-1.12,14.32-23.57,26.86-35.29,29.57a5.42,5.42,0,0,1-1.19.13,5.26,5.26,0,0,1-1.18-10.39c10.77-2.48,26.64-13.31,27.17-20.13.34-4.41-6.78-9.46-13.48-12.59-20,43.68-51.89,54.95-53.29,55.42a5.26,5.26,0,0,1-3.4-9.95c.45-.16,31.21-11.39,49.07-54.3a5.25,5.25,0,0,1,4.85-3.24m0-4.28a9.52,9.52,0,0,0-8.81,5.87c-16.85,40.5-45.84,51.65-46.54,51.91a9.54,9.54,0,0,0,3.14,18.55,9.42,9.42,0,0,0,3.07-.51c.9-.3,14.69-5.16,30-20.21,0,.25.08.49.14.73a9.49,9.49,0,0,0,9.29,7.4,9.77,9.77,0,0,0,2.15-.24c7-1.62,16.13-6,23.18-11.14,6.62-4.82,14.66-12.6,15.42-22.27,1.44-18.49-23-27.88-27.89-29.57a9.5,9.5,0,0,0-3.12-.52Zm-8.9,44a130.41,130.41,0,0,0,13.62-21.84C120.69,108.38,123,111,123,112c-.09,1.12-2.33,4.46-8,8.52a53.44,53.44,0,0,1-12.9,6.87Z"/><path class="cls-2" d="M152.63,94.92c-10.3,0-18.71-5.4-26.84-10.62C119,80,112.06,75.47,104,74.15a33,33,0,0,0-5.31-.44,32.63,32.63,0,0,0-22.91,9.67,7.4,7.4,0,0,1-11-9.87c.53-.59,13.21-14.6,33.93-14.6a48.25,48.25,0,0,1,7.73.63c11.09,1.82,19.75,7.39,27.39,12.3,7.2,4.62,12.88,8.27,18.87,8.27a14.87,14.87,0,0,0,3.17-.35c13.25-2.89,15.53-14.29,15.62-14.77a7.42,7.42,0,0,1,7.28-6.06,7.17,7.17,0,0,1,1.31.12,7.41,7.41,0,0,1,6,8.51,34.56,34.56,0,0,1-27,26.67,30.48,30.48,0,0,1-6.35.69Z"/><path class="cls-1" d="M98.66,61.05a45.46,45.46,0,0,1,7.38.6c10.65,1.75,19.12,7.19,26.59,12s13.41,8.61,20,8.61a17,17,0,0,0,3.63-.4,21.93,21.93,0,0,0,17.27-16.46,5.28,5.28,0,0,1,5.17-4.32,4.88,4.88,0,0,1,.93.09,5.24,5.24,0,0,1,4.26,6,32.32,32.32,0,0,1-25.39,24.93,27.1,27.1,0,0,1-5.89.65c-9.67,0-17.79-5.22-25.69-10.29C120,78,112.84,73.43,104.34,72a34.19,34.19,0,0,0-5.66-.47,35,35,0,0,0-24.5,10.37,5.26,5.26,0,0,1-7.85-7A45.72,45.72,0,0,1,98.66,61.05m0-4.29c-21.67,0-35,14.71-35.53,15.33A9.54,9.54,0,0,0,77.35,84.82a29.9,29.9,0,0,1,26.29-8.56c7.63,1.25,14.42,5.62,21,9.83,8,5.14,17.07,11,28,11a32.2,32.2,0,0,0,6.81-.74,36.74,36.74,0,0,0,28.69-28.39,9.56,9.56,0,0,0-7.73-11,9.46,9.46,0,0,0-1.68-.15,9.56,9.56,0,0,0-9.38,7.81c-.08.42-2.16,10.49-14,13.07a12.66,12.66,0,0,1-2.72.3c-5.36,0-10.81-3.5-17.71-7.93-7.82-5-16.68-10.72-28.21-12.61a50.12,50.12,0,0,0-8.07-.67Z"/><path class="cls-2" d="M162.44,164.07a7.41,7.41,0,0,1-7.4-7.4V107a7.4,7.4,0,1,1,14.8,0v49.7A7.41,7.41,0,0,1,162.44,164.07Z"/><path class="cls-1" d="M162.44,101.71A5.27,5.27,0,0,1,167.7,107v49.7a5.26,5.26,0,0,1-10.52,0V107a5.26,5.26,0,0,1,5.26-5.26m0-4.28A9.55,9.55,0,0,0,152.9,107v49.7a9.54,9.54,0,0,0,19.08,0V107a9.55,9.55,0,0,0-9.54-9.54Z"/><path class="cls-2" d="M143.84,72.06a12.2,12.2,0,0,1-2.92-.38c-4.34-1.1-7.93-3.58-9.6-6.62a5.6,5.6,0,0,1-.67-4.42c.94-2.84,5.68-7.61,8-9a3.07,3.07,0,0,1,1.55-.41c1.68,0,3.19,1.21,5.29,2.88s4.64,3.7,7,4a2.15,2.15,0,0,1,1.82,2.38C153.87,64.53,151.05,72.06,143.84,72.06Z"/><path class="cls-1" d="M140.24,53.39c2.2,0,6.91,6.17,12,6.9,0,0-1.18,9.63-8.4,9.63a9.61,9.61,0,0,1-2.39-.32c-6.54-1.65-9.46-6.19-8.77-8.29s4.85-6.5,7.09-7.8a.91.91,0,0,1,.47-.12m0-4.28h0a5.16,5.16,0,0,0-2.62.7c-2.75,1.59-7.85,6.67-9,10.16a7.72,7.72,0,0,0,.82,6.12c1.95,3.56,6.05,6.42,11,7.66a13.9,13.9,0,0,0,3.44.45c8.7,0,12.08-8.76,12.65-13.39a4.29,4.29,0,0,0-3.64-4.76c-1.8-.26-4.12-2.11-6-3.59-2.26-1.8-4.21-3.35-6.63-3.35Z"/><text class="cls-3" transform="translate(78.91 222.47)"><tspan class="cls-4">A</tspan><tspan x="19.99" y="0">t</tspan><tspan class="cls-5" x="31.6" y="0">l</tspan><tspan x="40.06" y="0">etik</tspan></text></svg>