<svg id="Layer_1" data-name="Layer 1" xmlns="http://www.w3.org/2000/svg" viewBox="0 0 250 250"><defs><style>.cls-1{fill:#87ae5e;}.cls-2{fill:#fffffd;}.cls-3{font-size:31.99px;fill:#6b6b6b;font-family:AveriaSansLibre-Regular, Averia Sans Libre;}</style></defs><path class="cls-1" d="M200,32.11s-20.67,17-48.6,13.13S111.45,27.93,82.68,29.32C59.5,30.44,50,44.68,50,44.68L66.76,164.8s11.17-5.87,29.05-1.4,43.58,17,63.41,18.44,26.53-4.47,26.53-4.47Z"/><path class="cls-2" d="M74.14,60.69C73.28,59,79.56,55,80.49,50.42c0,0,9.85,1.77,7.4,9.6-1.71,5.48-5.7,7.74-7.45,7.06S75.14,62.66,74.14,60.69Z"/><path class="cls-2" d="M120.52,115.92a4.48,4.48,0,0,1-4.24-3c-2.34-7-14.16-15-20.4-15.23h-.1c-2.16,0-5.65,2.1-8.73,4-5.06,3-10.28,6.2-15.7,4.82a11.68,11.68,0,0,1-7.18-5.83c-6.89-11.78,9.42-27.55,11.31-29.31a4.48,4.48,0,0,1,5-.77c2.56,1.22,10.44,4,16.06,2.32,4.87-1.46,10.77-10.15,13.35-15.28a4.48,4.48,0,0,1,8,4c-.86,1.72-8.66,16.82-18.79,19.86-7.17,2.14-15.23,0-19.5-1.6-4.93,5.29-9.69,12.86-7.7,16.26.39.67,1,1.51,1.65,1.68,1.8.46,5.89-2,8.87-3.82,4.39-2.65,9-5.39,13.73-5.25,9.56.29,25,10.4,28.62,21.33a4.48,4.48,0,0,1-2.83,5.67A4.4,4.4,0,0,1,120.52,115.92Z"/><path class="cls-2" d="M95.77,158.41a180.34,180.34,0,0,1-27.5-2.35,5.67,5.67,0,0,1-3.66-2.33,5.68,5.68,0,0,1,4.64-8.93,5.23,5.23,0,0,1,1,.09A173.45,173.45,0,0,0,96,147.08c7.56,0,13.72-.73,18.3-2.16,16.38-5.13,32.7-24.38,36.35-38.18,5.42-20.51,14-33.47,25.51-38.52A26.27,26.27,0,0,1,186.75,66,25.7,25.7,0,0,1,198,68.47a5.67,5.67,0,0,1-2.65,10.69,5.62,5.62,0,0,1-2.6-.64,14.44,14.44,0,0,0-5.94-1.22,15.12,15.12,0,0,0-6.28,1.37c-8,3.6-14.57,14.31-19,31-4.5,17-23.23,39.62-43.92,46.1C112,157.51,104.61,158.41,95.77,158.41Z"/><path class="cls-1" d="M186.75,67.17a24.57,24.57,0,0,1,10.7,2.36,4.47,4.47,0,0,1-4.14,7.93,15.64,15.64,0,0,0-6.49-1.35,16.27,16.27,0,0,0-6.77,1.47c-8.35,3.75-15.14,14.74-19.64,31.76-4.42,16.72-22.8,38.9-43.12,45.26-6.3,2-14.06,2.62-21.52,2.62a176.7,176.7,0,0,1-27.3-2.34,4.47,4.47,0,0,1,.78-8.88,5,5,0,0,1,.77.06A171.72,171.72,0,0,0,96,148.27c6.61,0,13.34-.55,18.66-2.21,16.74-5.24,33.42-24.92,37.14-39,5.32-20.14,13.68-32.84,24.84-37.74a25.11,25.11,0,0,1,10.15-2.14m0-2.39a27.4,27.4,0,0,0-11.11,2.35c-11.86,5.2-20.67,18.43-26.19,39.31-3.57,13.49-19.52,32.32-35.55,37.34-4.47,1.39-10.5,2.1-17.94,2.1a170.31,170.31,0,0,1-25.52-2.17,6.86,6.86,0,0,0-2.38,13.52,175.78,175.78,0,0,0,27.71,2.38c9,0,16.45-.92,22.23-2.73,21.08-6.59,40.14-29.59,44.73-46.93,4.3-16.3,10.63-26.74,18.3-30.19a13.92,13.92,0,0,1,5.79-1.26,13.39,13.39,0,0,1,5.42,1.1,6.87,6.87,0,0,0,6.33-12.19,27.07,27.07,0,0,0-11.82-2.63Z"/><path class="cls-2" d="M135.84,97a21.84,21.84,0,1,1,21.84-21.84A21.87,21.87,0,0,1,135.84,97Zm0-39.21a17.37,17.37,0,1,0,17.37,17.37A17.38,17.38,0,0,0,135.84,57.8Z"/><path class="cls-2" d="M107.78,149.64a21.84,21.84,0,1,1,21.84-21.84A21.86,21.86,0,0,1,107.78,149.64Zm0-39.21a17.37,17.37,0,1,0,17.36,17.37A17.39,17.39,0,0,0,107.78,110.43Z"/><text class="cls-3" transform="translate(92.85 222.47)">BMX</text></svg>