<svg id="Layer_1" data-name="Layer 1" xmlns="http://www.w3.org/2000/svg" viewBox="0 0 250 250"><defs><style>.cls-1{fill:#fb8140;}.cls-2{fill:#fffffd;}.cls-3{font-size:31.99px;fill:#6b6b6b;font-family:AveriaSansLibre-Regular, Averia Sans Libre;}.cls-4{letter-spacing:0em;}.cls-5{letter-spacing:-0.01em;}</style></defs><path class="cls-1" d="M200,179.16s-20.67-17-48.6-13.13S111.45,183.34,82.68,182C59.5,180.83,50,166.59,50,166.59L66.76,46.48s11.17,5.86,29.05,1.39,43.58-17,63.41-18.43,26.53,4.47,26.53,4.47Z"/><path class="cls-2" d="M99.43,197.76a8.11,8.11,0,0,1-1.7-.18l-.33-.08a8,8,0,0,1-5.81-9.45c.55-2.57,14.24-63.32,71.46-91.58a8,8,0,0,1,11.36,9c-3.11,13.22-7.09,37.55-4.52,46.59a8,8,0,0,1-5.53,9.91,8.15,8.15,0,0,1-2.19.3,8.05,8.05,0,0,1-7.72-5.83c-2.58-9.11-1.16-24.16.84-36.7-37.71,27-47.92,71.23-48,71.69A8,8,0,0,1,99.43,197.76Z"/><path class="cls-1" d="M166.6,97.79a5.86,5.86,0,0,1,5.73,7.22c-2.27,9.66-7.52,37-4.5,47.67a5.88,5.88,0,0,1-4.05,7.26,6,6,0,0,1-1.61.22,5.88,5.88,0,0,1-5.66-4.27c-2.87-10.12-.5-28.29,1.74-40.73-42,27.21-53,75.31-53.07,75.83a5.89,5.89,0,0,1-5.75,4.63,6,6,0,0,1-1.25-.13l-.23-.06a5.88,5.88,0,0,1-4.27-6.92c.55-2.54,14-62.31,70.32-90.12a5.85,5.85,0,0,1,2.6-.6m0-4.29a10.14,10.14,0,0,0-4.49,1C104,123.27,90.06,185,89.5,187.6a10.13,10.13,0,0,0,7.37,12l.38.09a10.2,10.2,0,0,0,12.11-7.77c.09-.42,9.46-40.65,43.05-67.28-1.58,11.55-2.35,24.22,0,32.44a10.21,10.21,0,0,0,9.78,7.38,9.94,9.94,0,0,0,2.76-.38,10.17,10.17,0,0,0,7-12.55c-2.33-8.19,1.26-31.55,4.55-45.52a10.17,10.17,0,0,0-9.9-12.49Z"/><path class="cls-2" d="M175.56,85.53a5.88,5.88,0,0,0-3.73-7.26c-1.26-.44-31.29-10.46-61.2,2.69-12,5.29-19.43,13.13-20.32,21.43a14.29,14.29,0,0,0,5.88,13.24c5.64,4.05,13.93,4.23,22.17.47a5.88,5.88,0,0,0-4.88-10.7c-5.13,2.34-8.82,1.83-10.42.68a2.44,2.44,0,0,1-1-2.46c.28-2.93,4-7.77,13.36-11.9C141.11,80.4,167.75,89.3,168,89.39a5.88,5.88,0,0,0,7.47-3.65C175.51,85.67,175.54,85.6,175.56,85.53Z"/><path class="cls-2" d="M119.28,53.64c-2.11-1.4-8.29,6.31-14.53,6.84,0,0,.85,13.3,11.57,11.23,7.5-1.44,11.1-6.37,10.45-8.79S121.73,55.26,119.28,53.64Z"/><text class="cls-3" transform="translate(60.81 222.47)"><tspan class="cls-4">M</tspan><tspan x="25.72" y="0">u</tspan><tspan class="cls-5" x="42.94" y="0">a</tspan><tspan x="59.01" y="0">ythai</tspan></text></svg>