<svg id="Layer_1" data-name="Layer 1" xmlns="http://www.w3.org/2000/svg" viewBox="0 0 250 250"><defs><style>.cls-1{fill:#00a2ea;}.cls-2{fill:#fffffd;}.cls-3{font-size:31.99px;fill:#6b6b6b;font-family:AveriaSansLibre-Regular, Averia Sans Libre;letter-spacing:-0.02em;}.cls-4{letter-spacing:0em;}.cls-5{letter-spacing:0em;}.cls-6{letter-spacing:0em;}</style></defs><path class="cls-1" d="M200,179.16s-20.67-17-48.6-13.13S111.45,183.34,82.68,182C59.5,180.83,50,166.59,50,166.59L66.76,46.48s11.17,5.86,29.05,1.39,43.58-17,63.41-18.43,26.53,4.47,26.53,4.47Z"/><path class="cls-2" d="M160.5,102.88c-7.54,0-15.11-3.17-24.7-7.18-6.3-2.64-13.44-5.62-22-8.28a35.07,35.07,0,0,0-10.47-1.68c-11,0-17.1,5.9-17.36,6.15a6.92,6.92,0,0,1-9.83-9.75,39.75,39.75,0,0,1,27.16-10.26A48.9,48.9,0,0,1,118,74.21c9.12,2.85,16.58,6,23.16,8.72,8.16,3.41,14.6,6.1,19.39,6.1l.72,0c5.34-.34,9.67-7,10.88-9.54a7,7,0,0,1,6.27-4,6.75,6.75,0,0,1,2.93.66,6.93,6.93,0,0,1,3.34,9.17c-.31.68-7.85,16.56-22.54,17.5C161.59,102.86,161,102.88,160.5,102.88Z"/><path class="cls-1" d="M103.35,74a46.61,46.61,0,0,1,14,2.23c9,2.82,16.43,5.92,23,8.65,8.34,3.49,15,6.27,20.22,6.27l.86,0c7.74-.5,12.63-10.66,12.68-10.76a4.78,4.78,0,0,1,8.66,4c-.29.63-7.3,15.4-20.73,16.26-.5,0-1,0-1.5,0-7.11,0-14.58-3.13-23.88-7-6.34-2.65-13.53-5.66-22.13-8.34a37.06,37.06,0,0,0-11.11-1.78c-11.84,0-18.51,6.42-18.86,6.77a4.78,4.78,0,0,1-6.8-6.73c.48-.49,9.69-9.62,25.63-9.62m0-4.28c-17.48,0-27.59,9.79-28.68,10.9a9.08,9.08,0,0,0,.08,12.76,9.09,9.09,0,0,0,12.78,0c.22-.22,5.77-5.53,15.85-5.53a33.16,33.16,0,0,1,9.84,1.58c8.4,2.63,15.49,5.59,21.74,8.21,9.83,4.11,17.57,7.35,25.54,7.35.58,0,1.18,0,1.77-.06,15.95-1,24-18,24.35-18.73a9.07,9.07,0,0,0-4.38-12,8.94,8.94,0,0,0-3.84-.86,9.1,9.1,0,0,0-8.2,5.2c-1,2-4.83,8-9.09,8.31a5.43,5.43,0,0,1-.58,0c-4.36,0-10.94-2.75-18.57-5.94-6.62-2.77-14.12-5.91-23.34-8.79a51.23,51.23,0,0,0-15.27-2.42Z"/><path class="cls-2" d="M127.36,190a6.93,6.93,0,0,1-5.4-11.25c.17-.22,17.7-22.51,17.7-43,0-15-10.55-21.66-17.93-24.45-15.36,28.54-48,30-54.54,30-.65,0-1.06,0-1.21,0a6.92,6.92,0,0,1-6.64-7.19,7,7,0,0,1,6.9-6.64h.28c.11,0,.39,0,.82,0,5.55,0,33.76-1.31,44.22-27.06A6.92,6.92,0,0,1,118,96.09a6.75,6.75,0,0,1,1.19.11c11.88,2.09,34.34,13,34.34,39.54,0,25.45-19.9,50.64-20.74,51.7A6.92,6.92,0,0,1,127.36,190Z"/><path class="cls-1" d="M118,98.23a4.76,4.76,0,0,1,.83.08c11.26,2,32.56,12.35,32.56,37.43,0,24.74-19.45,49.33-20.28,50.36a4.76,4.76,0,0,1-3.73,1.8,4.78,4.78,0,0,1-3.73-7.77c.18-.23,18.17-23,18.17-44.39,0-18.06-14.28-24.86-21.12-27.08-14.37,29-46.89,30.5-53.49,30.5-.6,0-1,0-1.12,0a4.78,4.78,0,0,1,.17-9.55h.19c.12,0,.43,0,.91,0,5.68,0,35.24-1.4,46.21-28.4a4.79,4.79,0,0,1,4.43-3M118,94h0a9,9,0,0,0-8.4,5.65c-9.94,24.48-36.93,25.72-42.24,25.72h-1.1a9.06,9.06,0,0,0-.34,18.12c.15,0,.6,0,1.29,0,6.59,0,39.2-1.47,55.48-29.45,6.63,2.92,14.85,9.09,14.85,21.75,0,19.72-17.07,41.51-17.24,41.72a9.06,9.06,0,0,0,14.16,11.32c.86-1.09,21.21-26.84,21.21-53,0-27.92-23.62-39.45-36.1-41.65A9.26,9.26,0,0,0,118,94Z"/><path class="cls-2" d="M131.73,72.42c-3.86,0-7-1.48-8-3.78-1.24-2.79-.93-9.62-.09-12.28s4.35-3,9.23-3.68A35.25,35.25,0,0,0,139,51.56a4,4,0,0,1,1.3-.23c1,0,3.56.48,4.4,4.91.92,4.84-.67,12.67-6,14.78A19,19,0,0,1,131.73,72.42Z"/><path class="cls-1" d="M140.31,53.47c3.66,0,3.67,13.16-2.42,15.56a17,17,0,0,1-6.16,1.25c-3.24,0-5.5-1.18-6.09-2.51-.91-2.06-.8-8.24,0-10.76.7-2.18,9.85-1.94,14.08-3.43a1.85,1.85,0,0,1,.59-.11m0-4.28h0a6.12,6.12,0,0,0-2,.35,35.24,35.24,0,0,1-5.74,1c-5.24.67-9.75,1.25-11,5.15-1,3.08-1.34,10.39.17,13.8,1.39,3.12,5.22,5,10,5A21.08,21.08,0,0,0,139.45,73c6.74-2.65,8.38-11.81,7.36-17.17-.93-4.9-4-6.65-6.5-6.65Z"/><circle class="cls-2" cx="171.39" cy="61.13" r="6.15"/><path class="cls-1" d="M171.39,57.13a4,4,0,1,1-4,4,4,4,0,0,1,4-4m0-4.28a8.29,8.29,0,1,0,8.28,8.28,8.29,8.29,0,0,0-8.28-8.28Z"/><path class="cls-2" d="M185.41,67.28a6.15,6.15,0,1,1,6.14-6.15A6.16,6.16,0,0,1,185.41,67.28Z"/><path class="cls-1" d="M185.41,57.13a4,4,0,1,1-4,4,4,4,0,0,1,4-4m0-4.28a8.29,8.29,0,1,0,8.28,8.28,8.29,8.29,0,0,0-8.28-8.28Z"/><circle class="cls-2" cx="178.37" cy="50.15" r="6.15"/><path class="cls-1" d="M178.37,46.14a4,4,0,1,1-4,4,4,4,0,0,1,4-4m0-4.28a8.29,8.29,0,1,0,8.28,8.29,8.3,8.3,0,0,0-8.28-8.29Z"/><text class="cls-3" transform="translate(60.36 222.47)">P<tspan class="cls-4" x="17.93" y="0">e</tspan><tspan class="cls-5" x="33.86" y="0">t</tspan><tspan class="cls-6" x="45.4" y="0">anque</tspan></text></svg>