<svg id="Layer_1" data-name="Layer 1" xmlns="http://www.w3.org/2000/svg" viewBox="0 0 250 250"><defs><style>.cls-1{fill:#fc0;}.cls-2{fill:#724588;}.cls-3{fill:#fffffd;}.cls-4{font-size:31.99px;fill:#6b6b6b;font-family:AveriaSansLibre-Regular, Averia Sans Libre;}.cls-5{letter-spacing:0em;}.cls-6{fill:#fb8140;}</style></defs><path class="cls-1" d="M50,32.11s20.67,17,48.6,13.13,40-17.31,68.72-15.92C190.5,30.44,200,44.68,200,44.68L183.24,164.8s-11.17-5.87-29.05-1.4-43.58,17-63.41,18.44-26.53-4.47-26.53-4.47Z"/><circle class="cls-2" cx="106.67" cy="145.94" r="7.77"/><path class="cls-3" d="M163.58,94c-7.13,0-14.28-3-23.33-6.77-6-2.49-12.68-5.3-20.68-7.8a32.82,32.82,0,0,0-9.81-1.58c-10.33,0-16.21,5.68-16.27,5.74a6.66,6.66,0,0,1-9.38.06,6.65,6.65,0,0,1-.09-9.4c1-1,10-9.71,25.69-9.71a46.44,46.44,0,0,1,13.83,2.2c8.57,2.68,15.59,5.61,21.78,8.2l.28.12c7.56,3.16,13.52,5.65,18,5.65l.72,0c6-.38,10.13-8.85,10.18-8.93a6.67,6.67,0,0,1,6-3.81,6.52,6.52,0,0,1,2.81.63,6.65,6.65,0,0,1,3.21,8.81c-.29.64-7.42,15.68-21.35,16.57C164.61,94,164.1,94,163.58,94Z"/><path class="cls-1" d="M109.71,66.69a44.17,44.17,0,0,1,13.19,2.1c8.5,2.66,15.49,5.58,21.65,8.16,7.82,3.27,14.09,5.91,19,5.91q.44,0,.87,0c7.3-.46,11.91-10,12-10.14a4.53,4.53,0,0,1,4.09-2.59,4.42,4.42,0,0,1,1.9.43,4.49,4.49,0,0,1,2.18,6c-.27.59-6.88,14.52-19.55,15.33-.47,0-.94,0-1.41,0-6.7,0-13.74-2.94-22.51-6.61-6-2.5-12.76-5.33-20.86-7.86a34.67,34.67,0,0,0-10.45-1.68C98.4,75.72,92.06,82,92,82.08a4.51,4.51,0,0,1-6.43-6.32c.45-.46,9.13-9.07,24.16-9.07m0-4.28c-16.53,0-26.17,9.28-27.21,10.34a8.79,8.79,0,0,0,6.27,15A8.69,8.69,0,0,0,95,85.11c.35-.34,5.53-5.11,14.76-5.11a30.84,30.84,0,0,1,9.17,1.48c7.91,2.47,14.59,5.26,20.48,7.73,8.92,3.73,16.61,7,24.17,7,.56,0,1.13,0,1.68-.06,15.21-1,22.85-17.11,23.17-17.8a8.81,8.81,0,0,0-4.25-11.65,8.71,8.71,0,0,0-3.72-.83,8.84,8.84,0,0,0-8,5.05c-.92,1.89-4.46,7.44-8.35,7.69-.22,0-.41,0-.6,0-4,0-10.08-2.54-17.12-5.49L146.2,73l-.07,0c-6.23-2.61-13.29-5.56-21.95-8.26a48.42,48.42,0,0,0-14.47-2.3Z"/><path class="cls-3" d="M132.34,176.18a6.66,6.66,0,0,1-5.19-10.8c.16-.2,16.67-21.29,16.67-40.51,0-14-9.8-20.25-16.73-22.89-14.53,26.87-45.32,28.26-51.45,28.26-.63,0-1,0-1.17,0a6.65,6.65,0,0,1-6.37-6.91,6.58,6.58,0,0,1,6.55-6.38h1c5.24,0,31.89-1.22,41.72-25.42a6.61,6.61,0,0,1,6.15-4.15,7.46,7.46,0,0,1,1.16.1c11.23,2,32.46,12.34,32.46,37.4,0,24-18.77,47.81-19.57,48.81A6.61,6.61,0,0,1,132.34,176.18Z"/><path class="cls-1" d="M123.49,89.51a5.27,5.27,0,0,1,.79.07C134.89,91.45,155,101.23,155,124.87c0,23.32-18.33,46.5-19.11,47.48a4.49,4.49,0,0,1-3.52,1.69,4.51,4.51,0,0,1-3.52-7.32C129,166.5,146,145,146,124.87c0-17-13.46-23.43-19.92-25.53-13.53,27.31-44.13,28.76-50.4,28.76-.58,0-1,0-1.08,0a4.5,4.5,0,0,1-4.32-4.68,4.45,4.45,0,0,1,4.41-4.33h1c5,0,33.27-1.07,43.7-26.75a4.5,4.5,0,0,1,4.17-2.82m0-4.28h0a8.76,8.76,0,0,0-8.14,5.49C106,113.64,80.62,114.8,75.62,114.8h-1a8.79,8.79,0,0,0-.26,17.57c.14,0,.58,0,1.25,0,6.22,0,36.93-1.39,52.38-27.7,6.16,2.76,13.66,8.53,13.66,20.19,0,18.38-16.06,39-16.22,39.2a8.79,8.79,0,0,0,1.4,12.33,8.85,8.85,0,0,0,5.48,1.92,8.75,8.75,0,0,0,6.87-3.3c.82-1,20-25.38,20-50.15,0-26.49-22.39-37.42-34.23-39.5a8.8,8.8,0,0,0-1.53-.14Z"/><path class="cls-3" d="M135.68,65c-3.36,0-6-1.27-6.91-3.3-1.18-2.65-.89-9.15-.08-11.66.74-2.35,3.43-2.52,6.54-2.72,2.53-.17,5.68-.37,7.57-1.64a2.09,2.09,0,0,1,1.19-.37,2.11,2.11,0,0,1,1.75.9c.16.23,3.84,5.51,2.61,10.65a9.22,9.22,0,0,1-5,6.09A16.51,16.51,0,0,1,135.68,65Z"/><path class="cls-1" d="M144,47.42s6.54,9.25-1.66,13.61a14.23,14.23,0,0,1-6.65,1.8c-2.59,0-4.46-.92-5-2-.87-1.95-.76-7.77,0-10.14.65-2.06,8.85-.26,13.26-3.24m0-4.28a4.3,4.3,0,0,0-2.39.73c-1.41,1-4.35,1.14-6.51,1.28-3.23.21-7.25.47-8.44,4.21-.94,2.93-1.29,9.91.16,13.17,1.26,2.83,4.66,4.58,8.87,4.58a18.6,18.6,0,0,0,8.67-2.3,11.41,11.41,0,0,0,6.09-7.48c1.41-6-2.5-11.74-2.95-12.38a4.26,4.26,0,0,0-3.5-1.81Z"/><text class="cls-4" transform="translate(48.22 222.47)">Sepak B<tspan class="cls-5" x="112.03" y="0">o</tspan><tspan x="128.71" y="0">la</tspan></text><path class="cls-6" d="M50,32.11s20.67,17,48.6,13.13,40-17.31,68.72-15.92C190.5,30.44,200,44.68,200,44.68L183.24,164.8s-11.17-5.87-29.05-1.4-43.58,17-63.41,18.44-26.53-4.47-26.53-4.47Z"/><circle class="cls-3" cx="106.67" cy="145.94" r="9.03"/><path class="cls-3" d="M163.58,94c-7.13,0-14.28-3-23.33-6.77-6-2.49-12.68-5.3-20.68-7.8a32.82,32.82,0,0,0-9.81-1.58c-10.33,0-16.21,5.68-16.27,5.74a6.66,6.66,0,0,1-9.38.06,6.65,6.65,0,0,1-.09-9.4c1-1,10-9.71,25.69-9.71a46.44,46.44,0,0,1,13.83,2.2c8.57,2.68,15.59,5.61,21.78,8.2l.28.12c7.56,3.16,13.52,5.65,18,5.65l.72,0c6-.38,10.13-8.85,10.18-8.93a6.67,6.67,0,0,1,6-3.81,6.52,6.52,0,0,1,2.81.63,6.65,6.65,0,0,1,3.21,8.81c-.29.64-7.42,15.68-21.35,16.57C164.61,94,164.1,94,163.58,94Z"/><path class="cls-6" d="M109.71,66.69a44.17,44.17,0,0,1,13.19,2.1c8.5,2.66,15.49,5.58,21.65,8.16,7.82,3.27,14.09,5.91,19,5.91q.44,0,.87,0c7.3-.46,11.91-10,12-10.14a4.53,4.53,0,0,1,4.09-2.59,4.42,4.42,0,0,1,1.9.43,4.49,4.49,0,0,1,2.18,6c-.27.59-6.88,14.52-19.55,15.33-.47,0-.94,0-1.41,0-6.7,0-13.74-2.94-22.51-6.61-6-2.5-12.76-5.33-20.86-7.86a34.67,34.67,0,0,0-10.45-1.68C98.4,75.72,92.06,82,92,82.08a4.51,4.51,0,0,1-6.43-6.32c.45-.46,9.13-9.07,24.16-9.07m0-4.28c-16.53,0-26.17,9.28-27.21,10.34a8.79,8.79,0,0,0,6.27,15A8.69,8.69,0,0,0,95,85.11c.35-.34,5.53-5.11,14.76-5.11a30.84,30.84,0,0,1,9.17,1.48c7.91,2.47,14.59,5.26,20.48,7.73,8.92,3.73,16.61,7,24.17,7,.56,0,1.13,0,1.68-.06,15.21-1,22.85-17.11,23.17-17.8a8.81,8.81,0,0,0-4.25-11.65,8.71,8.71,0,0,0-3.72-.83,8.84,8.84,0,0,0-8,5.05c-.92,1.89-4.46,7.44-8.35,7.69-.22,0-.41,0-.6,0-4,0-10.08-2.54-17.12-5.49L146.2,73l-.07,0c-6.23-2.61-13.29-5.56-21.95-8.26a48.42,48.42,0,0,0-14.47-2.3Z"/><path class="cls-3" d="M132.34,176.18a6.66,6.66,0,0,1-5.19-10.8c.16-.2,16.67-21.29,16.67-40.51,0-14-9.8-20.25-16.73-22.89-14.53,26.87-45.32,28.26-51.45,28.26-.63,0-1,0-1.17,0a6.65,6.65,0,0,1-6.37-6.91,6.58,6.58,0,0,1,6.55-6.38h1c5.24,0,31.89-1.22,41.72-25.42a6.61,6.61,0,0,1,6.15-4.15,7.46,7.46,0,0,1,1.16.1c11.23,2,32.46,12.34,32.46,37.4,0,24-18.77,47.81-19.57,48.81A6.61,6.61,0,0,1,132.34,176.18Z"/><path class="cls-6" d="M123.49,89.51a5.27,5.27,0,0,1,.79.07C134.89,91.45,155,101.23,155,124.87c0,23.32-18.33,46.5-19.11,47.48a4.49,4.49,0,0,1-3.52,1.69,4.51,4.51,0,0,1-3.52-7.32C129,166.5,146,145,146,124.87c0-17-13.46-23.43-19.92-25.53-13.53,27.31-44.13,28.76-50.4,28.76-.58,0-1,0-1.08,0a4.5,4.5,0,0,1-4.32-4.68,4.45,4.45,0,0,1,4.41-4.33h1c5,0,33.27-1.07,43.7-26.75a4.5,4.5,0,0,1,4.17-2.82m0-4.28h0a8.76,8.76,0,0,0-8.14,5.49C106,113.64,80.62,114.8,75.62,114.8h-1a8.79,8.79,0,0,0-.26,17.57c.14,0,.58,0,1.25,0,6.22,0,36.93-1.39,52.38-27.7,6.16,2.76,13.66,8.53,13.66,20.19,0,18.38-16.06,39-16.22,39.2a8.79,8.79,0,0,0,1.4,12.33,8.85,8.85,0,0,0,5.48,1.92,8.75,8.75,0,0,0,6.87-3.3c.82-1,20-25.38,20-50.15,0-26.49-22.39-37.42-34.23-39.5a8.8,8.8,0,0,0-1.53-.14Z"/><path class="cls-3" d="M135.68,65c-3.36,0-6-1.27-6.91-3.3-1.18-2.65-.89-9.15-.08-11.66.74-2.35,3.43-2.52,6.54-2.72,2.53-.17,5.68-.37,7.57-1.64a2.09,2.09,0,0,1,1.19-.37,2.11,2.11,0,0,1,1.75.9c.16.23,3.84,5.51,2.61,10.65a9.22,9.22,0,0,1-5,6.09A16.51,16.51,0,0,1,135.68,65Z"/><path class="cls-6" d="M144,47.42s6.54,9.25-1.66,13.61a14.23,14.23,0,0,1-6.65,1.8c-2.59,0-4.46-.92-5-2-.87-1.95-.76-7.77,0-10.14.65-2.06,8.85-.26,13.26-3.24m0-4.28a4.3,4.3,0,0,0-2.39.73c-1.41,1-4.35,1.14-6.51,1.28-3.23.21-7.25.47-8.44,4.21-.94,2.93-1.29,9.91.16,13.17,1.26,2.83,4.66,4.58,8.87,4.58a18.6,18.6,0,0,0,8.67-2.3,11.41,11.41,0,0,0,6.09-7.48c1.41-6-2.5-11.74-2.95-12.38a4.26,4.26,0,0,0-3.5-1.81Z"/><text class="cls-4" transform="translate(48.22 222.47)">Sepak B<tspan class="cls-5" x="112.03" y="0">o</tspan><tspan x="128.71" y="0">la</tspan></text></svg>