<svg id="Layer_1" data-name="Layer 1" xmlns="http://www.w3.org/2000/svg" viewBox="0 0 250 250"><defs><style>.cls-1{fill:#00a2ea;}.cls-2{fill:#fffffd;}.cls-3{font-size:31.99px;fill:#6b6b6b;font-family:AveriaSansLibre-Regular, Averia Sans Libre;}.cls-4{letter-spacing:-0.07em;}.cls-5{letter-spacing:-0.01em;}.cls-6{letter-spacing:0em;}</style></defs><path class="cls-1" d="M50,179.16s20.67-17,48.6-13.13,40,17.31,68.72,15.92C190.5,180.83,200,166.59,200,166.59L183.24,46.48s-11.17,5.86-29.05,1.39-43.58-17-63.41-18.43-26.53,4.47-26.53,4.47Z"/><path class="cls-2" d="M175.25,173.06a7,7,0,0,1-3.91-1.19c-.83-.55-20.51-13.81-26.23-32.17-2.94-9.43-2.88-16.72-2.11-21.59a25.81,25.81,0,0,0-2.91-.17A26.44,26.44,0,0,0,123,124.38c-15.06,12.4-28.52,42-28.65,42.27a7.06,7.06,0,0,1-12.86-5.81c.61-1.34,15-32.87,32.54-47.35a40,40,0,0,1,26-9.65,37.33,37.33,0,0,1,14.85,2.91,7,7,0,0,1,3.1,10c-.23.47-3.09,6.71.66,18.77C162.78,149,179,160,179.17,160.15a7,7,0,0,1-3.92,12.91Z"/><path class="cls-1" d="M140,105.64a36,36,0,0,1,14.09,2.73,5.27,5.27,0,0,1,2.29,7.5c-.1.18-3.63,6.85.52,20.17,4.41,14.14,21.15,25.48,21.32,25.6a5.26,5.26,0,1,1-5.84,8.74c-.82-.54-20-13.48-25.52-31.21-3.17-10.18-2.77-17.74-1.72-22.56a27.79,27.79,0,0,0-5-.46A28.25,28.25,0,0,0,121.84,123c-15.37,12.67-29,42.62-29.15,42.92a5.26,5.26,0,1,1-9.58-4.33c.59-1.32,14.8-32.5,32-46.71A38.34,38.34,0,0,1,140,105.64m0-3.59h0a41.75,41.75,0,0,0-27.09,10.06c-17.89,14.74-32.42,46.64-33,48A8.84,8.84,0,1,0,96,167.38c.13-.29,13.47-29.52,28.16-41.62a24.66,24.66,0,0,1,16-6H141a51,51,0,0,0,2.42,20.49c5.91,19,26.1,32.56,26.95,33.13a8.84,8.84,0,0,0,9.82-14.71c-.15-.11-15.88-10.83-19.88-23.69-3.45-11.06-1-16.83-.8-17.39a8.84,8.84,0,0,0-3.93-12.46,39.43,39.43,0,0,0-15.6-3.07Z"/><path class="cls-2" d="M80.4,83.72A3.56,3.56,0,1,1,84,80.16,3.56,3.56,0,0,1,80.4,83.72Zm0-5.79a2.24,2.24,0,1,0,2.24,2.23A2.23,2.23,0,0,0,80.4,77.93Z"/><path class="cls-2" d="M135.07,47.37c-1.12-2.27-10.3,1.25-15.93-1.43,0,0-6,11.86,4.3,15.48,7.17,2.53,12.74.1,13.4-2.3S136.36,50,135.07,47.37Z"/><path class="cls-2" d="M104.5,102.76a159.13,159.13,0,0,1-22-1.51,5.26,5.26,0,0,1,1.59-10.4c.21,0,20.56,3.08,38.34,0,12.42-2.14,16.7-7.4,18-9.57a5.11,5.11,0,0,0,.85-4,1.31,1.31,0,0,0-.84-.83c-2.05-.93-7-.72-13.45,1.82-19.35,7.63-27.67-1-28.55-2,0,0-3.4-4.5.62-7.9,3.45-2.91,7.22.88,7.11.78.05,0,4.65,4.16,17-.69,5-2,14.55-4.84,21.65-1.62a11.79,11.79,0,0,1,6.4,6.87c1.41,3.92.8,8.6-1.66,12.82s-9.09,11.85-25.26,14.63A117.62,117.62,0,0,1,104.5,102.76Z"/><path class="cls-2" d="M94.24,58.28c3.11,2.81,3.33,9.24,1.74,11-1.73,1.91-8.06,2.11-11.16-.7s-2.67-6.63-.09-9.47S91.14,55.47,94.24,58.28Z"/><path class="cls-2" d="M100,72a1.25,1.25,0,0,1-.62-.16l-6-3.21a1.32,1.32,0,0,1-.54-1.78,1.33,1.33,0,0,1,1.79-.54l5.95,3.22A1.31,1.31,0,0,1,100,72Z"/><text class="cls-3" transform="translate(51.64 222.47)"><tspan class="cls-4">T</tspan><tspan x="15.24" y="0">enis </tspan><tspan class="cls-5" x="80.42" y="0">M</tspan><tspan class="cls-6" x="106.08" y="0">e</tspan><tspan x="121.95" y="0">ja</tspan></text></svg>