<svg id="Layer_1" data-name="Layer 1" xmlns="http://www.w3.org/2000/svg" viewBox="0 0 250 250"><defs><style>.cls-1{fill:#fc0;}.cls-2{fill:#fffffd;}.cls-3{font-size:31.99px;fill:#6b6b6b;font-family:AveriaSansLibre-Regular, Averia Sans Libre;}.cls-4{letter-spacing:0em;}.cls-5{letter-spacing:0em;}.cls-6{letter-spacing:-0.07em;}</style></defs><path class="cls-1" d="M200,32.11s-20.67,17-48.6,13.13S111.45,27.93,82.68,29.32C59.5,30.44,50,44.68,50,44.68L66.76,164.8s11.17-5.87,29.05-1.4,43.58,17,63.41,18.44,26.53-4.47,26.53-4.47Z"/><path class="cls-2" d="M152,89.21a3.08,3.08,0,0,1-.68-.08A3,3,0,0,1,149,85.54l1.13-4.82c-1-3.82-5.3-19.79-5-26.38.14-3.52,1.68-10.59,6.55-14.81a13.53,13.53,0,0,1,9.13-3.34,17.39,17.39,0,0,1,1.75.09c2.68.27,5.6,2.35,7.62,5.42,1.77,2.69,4.32,8.53,1.5,17.42C169.44,66.28,164.14,74,156,82.18l-1.1,4.72A3,3,0,0,1,152,89.21Zm8.87-47A7.64,7.64,0,0,0,155.61,44c-3.44,3-4.42,8.76-4.5,10.55-.18,4.31,2.21,14.45,3.67,20.2,5.77-6.26,9.54-12.13,11.23-17.47,2.07-6.54.39-10.54-.8-12.34A6.2,6.2,0,0,0,162,42.22,11.37,11.37,0,0,0,160.82,42.16Z"/><path class="cls-1" d="M160.83,37.3a15.12,15.12,0,0,1,1.63.09c2.33.23,5,2.17,6.82,4.92,1.66,2.52,4,8,1.36,16.47-2.23,7.06-7.51,14.74-15.69,22.84l-1.17,5A1.9,1.9,0,0,1,152,88.1a2.18,2.18,0,0,1-.43,0,1.88,1.88,0,0,1-1.4-2.25l1.19-5.1c-.84-3.07-5.33-19.69-5.05-26.32.13-3.34,1.59-10,6.17-14a12.43,12.43,0,0,1,8.4-3.07M154.21,77c6.66-6.93,11-13.44,12.86-19.37,2.21-7,.37-11.31-.93-13.28-1.46-2.22-3.26-3.17-4-3.25-.44,0-.86-.07-1.27-.07a8.69,8.69,0,0,0-5.93,2.15c-3.76,3.26-4.8,9.29-4.89,11.34-.2,4.93,2.72,16.8,4.21,22.48m6.62-41.94h0A14.59,14.59,0,0,0,151,38.69c-5.16,4.47-6.79,11.91-6.94,15.6-.27,6.51,3.56,21.25,5,26.46L148,85.29a4.1,4.1,0,0,0,3,4.92,4.17,4.17,0,0,0,.94.11,4.09,4.09,0,0,0,4-3.16l1-4.42c8.18-8.19,13.49-16,15.79-23.29,3-9.32.25-15.51-1.63-18.36-2.2-3.34-5.43-5.61-8.44-5.91a16.82,16.82,0,0,0-1.86-.1ZM155.35,72.5c-2.12-8.58-3.25-15-3.13-17.87.07-1.66,1-7,4.12-9.75a6.5,6.5,0,0,1,4.48-1.6c.32,0,.65,0,1,0a5.71,5.71,0,0,1,2.48,2.27c1.07,1.64,2.59,5.29.66,11.39-1.5,4.75-4.73,10-9.6,15.52Z"/><path class="cls-2" d="M102.62,75.23c-4.12,0-7.58-1.7-8.23-4-.73-2.62.42-9.33,1.76-12.07.61-1.24,2.14-1.4,3.4-1.4.9,0,2,.09,3.07.18,1.29.11,2.75.23,4.17.23A12,12,0,0,0,112,57.2a1.18,1.18,0,0,1,.48-.1,1.09,1.09,0,0,1,1,.61c.13.25,3.09,6.23,1.09,11.22a9.17,9.17,0,0,1-5.83,5.2A18.25,18.25,0,0,1,102.62,75.23Z"/><path class="cls-1" d="M112.46,58.21s5.74,11.39-4.12,14.87a17,17,0,0,1-5.72,1c-4,0-6.71-1.62-7.16-3.24-.64-2.3.45-8.77,1.69-11.28.29-.6,1.17-.78,2.4-.78,1.87,0,4.55.42,7.24.42a13.23,13.23,0,0,0,5.67-1m0-2.23a2.21,2.21,0,0,0-1,.22,11,11,0,0,1-4.71.81c-1.37,0-2.75-.11-4.08-.23-1.14-.09-2.22-.18-3.16-.18s-3.4,0-4.39,2c-1.45,2.93-2.64,10-1.84,12.86s4.62,4.86,9.3,4.86a19.49,19.49,0,0,0,6.47-1.16,10.22,10.22,0,0,0,6.48-5.84c2.19-5.44-1-11.86-1.12-12.13a2.23,2.23,0,0,0-2-1.23Z"/><path class="cls-2" d="M118.27,111a55.42,55.42,0,0,1-9.73-.82c-8.59-1.51-14.22-6.66-15.47-14.13s2.28-15.51,8-18.64a9.82,9.82,0,0,1,11.69,1.38l.49.44c5.09,4.54,5.09,4.54,12.76,5.35,9.63,1,16.1,1.49,27.34-1.28a5,5,0,1,1,2.39,9.7l-1,.26a5,5,0,0,1,0,8.93C153.88,102.61,137,111,118.27,111ZM106.08,86.27c-1,.06-3.36,3.18-3.25,7s2.61,6.19,7.44,7c14.47,2.54,30-2.87,36.63-5.61-7.9,1.08-14.2.6-22-.21C114.8,93.47,113,92.46,106.56,86.7Z"/><path class="cls-2" d="M156.46,171.8a6.09,6.09,0,0,1-5.82-4.28,99.52,99.52,0,0,0-23.07-38.33c-9.42-4.22-15.78-4.85-18.74-4.85s-4.31.59-4.74.84l-.19.13c-3.24,45-37.87,45.48-38.22,45.48a6.11,6.11,0,0,1,0-12.22c1,0,23.62-.61,26-34.1a12.16,12.16,0,0,1,6.18-9.81,21.54,21.54,0,0,1,11-2.56c7.1,0,15.66,2.22,24.74,6.42a6,6,0,0,1,1.55,1,109,109,0,0,1,27.11,44.29,6.11,6.11,0,0,1-4,7.67A6.11,6.11,0,0,1,156.46,171.8Z"/><path class="cls-1" d="M108.89,113.21c6.82,0,15.25,2.14,24.27,6.32a4.92,4.92,0,0,1,1.27.84,107.79,107.79,0,0,1,26.8,43.81,5,5,0,0,1-9.53,3,100.14,100.14,0,0,0-23.49-38.93c-8.35-3.77-15-5-19.38-5a11,11,0,0,0-5.3,1c-.7.41-.72.72-.74,1-3.13,44-36.6,44.43-37.11,44.43h0a5,5,0,0,1,0-10c1.05,0,24.65-.65,27.1-35.13a11.08,11.08,0,0,1,5.64-8.94,20.52,20.52,0,0,1,10.44-2.4m0-2.23h0a22.59,22.59,0,0,0-11.57,2.72,13.25,13.25,0,0,0-6.73,10.69c-2.31,32.48-24,33.06-24.9,33.07a7.22,7.22,0,0,0,0,14.44,38.09,38.09,0,0,0,18.77-6.06c8.38-5.33,18.71-16.56,20.52-39.85a11,11,0,0,1,3.87-.54c2.85,0,9,.61,18.1,4.67a98.46,98.46,0,0,1,22.65,37.74,7.19,7.19,0,0,0,6.88,5,7.3,7.3,0,0,0,2.18-.34,7.21,7.21,0,0,0,4.71-9.06,110,110,0,0,0-27.42-44.78,7,7,0,0,0-1.83-1.22c-9.23-4.27-17.95-6.53-25.21-6.53Z"/><path class="cls-2" d="M178.12,114a5.38,5.38,0,1,1,5.37-5.37A5.38,5.38,0,0,1,178.12,114Z"/><path class="cls-1" d="M178.12,104.4a4.27,4.27,0,1,1-4.27,4.27,4.27,4.27,0,0,1,4.27-4.27m0-2.22a6.49,6.49,0,1,0,6.48,6.49,6.5,6.5,0,0,0-6.48-6.49Z"/><text class="cls-3" transform="translate(55.96 222.47)">S<tspan class="cls-4" x="17.82" y="0">o</tspan><tspan x="34.5" y="0">ft</tspan><tspan class="cls-5" x="57.73" y="0"> </tspan><tspan class="cls-6" x="66.89" y="0">T</tspan><tspan x="82.14" y="0">enis</tspan></text></svg>