<svg id="Layer_1" data-name="Layer 1" xmlns="http://www.w3.org/2000/svg" viewBox="0 0 250 250"><defs><style>.cls-1{fill:#87ae5e;}.cls-2{fill:#fffffd;}.cls-3{font-size:31.99px;fill:#6b6b6b;font-family:AveriaSansLibre-Regular, Averia Sans Libre;}.cls-4{letter-spacing:-0.02em;}.cls-5{letter-spacing:0em;}</style></defs><path class="cls-1" d="M50,179.16s20.67-17,48.6-13.13,40,17.31,68.72,15.92C190.5,180.83,200,166.59,200,166.59L183.24,46.48s-11.17,5.86-29.05,1.39-43.58-17-63.41-18.43-26.53,4.47-26.53,4.47Z"/><path class="cls-2" d="M128.66,83c-8.34,0-14.16-4.24-14.35-8.2-.18-3.55,3.18-11.75,5.67-14.85a3.41,3.41,0,0,1,2.83-1.18,22.64,22.64,0,0,1,5.95,1.38c3,.94,6.37,2,9.46,2a10.46,10.46,0,0,0,2.32-.24,1.69,1.69,0,0,1,.38,0,1.73,1.73,0,0,1,1.68,1.31c.09.35,2.15,8.82-1.84,14.61-2,2.85-5,4.54-9,5A25.48,25.48,0,0,1,128.66,83Z"/><path class="cls-1" d="M122.81,60.47c3.09,0,9.61,3.39,15.41,3.39a12.62,12.62,0,0,0,2.7-.28s4,15.89-9.35,17.5a24.61,24.61,0,0,1-2.91.17c-7.66,0-12.5-3.82-12.63-6.56-.15-3.07,3-10.87,5.3-13.68a1.78,1.78,0,0,1,1.48-.54m0-3.45h0a5.08,5.08,0,0,0-4.17,1.82c-2.49,3.1-6.27,11.68-6.06,16,.23,4.74,6.45,9.85,16.08,9.85a28.71,28.71,0,0,0,3.32-.2,13.93,13.93,0,0,0,10.2-5.76c4.35-6.32,2.34-15,2.09-16a3.44,3.44,0,0,0-4.12-2.53,8.74,8.74,0,0,1-1.93.2c-2.82,0-6.07-1-8.94-1.93A23.37,23.37,0,0,0,122.81,57Z"/><path class="cls-2" d="M164.39,115.71a7.54,7.54,0,0,1-.94-.06c-3.77-.49-7.11-.83-10.07-1.14-11.31-1.18-19.48-2-34.78-8.53-23.27-9.89-36-21.58-38.88-35.73-1.31-6.41,4-13.14,16.19-20.59a7.39,7.39,0,1,1,7.71,12.62,50,50,0,0,0-8.92,6.83c2.77,8.23,12.75,16,29.68,23.25,13.27,5.64,19.77,6.31,30.53,7.43l.12,0c3,.31,6.41.66,10.3,1.17a7.4,7.4,0,0,1-.94,14.73Z"/><path class="cls-1" d="M99.76,50.3a5.67,5.67,0,0,1,3,10.51c-4.19,2.56-8.58,6.08-9.94,7.89,2.49,9.09,12.88,17.58,30.93,25.25,13.5,5.74,20.09,6.42,31,7.56,3,.32,6.46.67,10.38,1.18a5.67,5.67,0,0,1-.72,11.29,6.06,6.06,0,0,1-.73,0c-3.78-.49-7.14-.84-10.1-1.15-11.16-1.16-19.22-2-34.29-8.4-22.7-9.65-35.09-20.93-37.86-34.48-1.13-5.54,4-11.85,15.4-18.78a5.66,5.66,0,0,1,3-.83m0-3.45h0A9.13,9.13,0,0,0,95,48.18C82.11,56.06,76.55,63.39,78,70.6c3,14.75,16.07,26.84,39.9,37,15.54,6.6,23.82,7.47,35.28,8.66h.05c2.93.31,6.25.65,10,1.13a9.33,9.33,0,0,0,1.17.08,9.13,9.13,0,0,0,1.16-18.18c-3.94-.51-7.38-.86-10.42-1.18-11-1.15-17-1.77-30.07-7.31-15.53-6.6-25.27-13.9-28.34-21.22a53.57,53.57,0,0,1,7.8-5.79,9.12,9.12,0,0,0-4.76-16.91Z"/><path class="cls-2" d="M77.82,175.87a7.41,7.41,0,0,1-7.33-6.44,69.79,69.79,0,0,1,2.67-26.81c4.06-13.24,14.17-30.44,39.3-37.21a7.43,7.43,0,0,1,8.15,3.15c.19.29,19.14,29.75,25.69,37.2l.49.56c5.38,6.14,8.62,9.84,28.28,13.43a7.4,7.4,0,0,1-1.32,14.68,7.48,7.48,0,0,1-1.33-.12c-24.73-4.52-30.31-10.87-36.76-18.23l-.48-.55c-5.65-6.42-18.08-25.23-23.92-34.2C81.21,132.84,85,166.12,85.17,167.55a7.42,7.42,0,0,1-6.41,8.26A7.54,7.54,0,0,1,77.82,175.87Z"/><path class="cls-1" d="M114.38,106.88a5.69,5.69,0,0,1,4.78,2.61c.19.3,19.14,29.79,25.84,37.42l.49.55c5.43,6.2,9,10.29,29.27,14a5.67,5.67,0,0,1-1,11.25,5.86,5.86,0,0,1-1-.09c-24.14-4.41-29.53-10.55-35.77-17.67l-.48-.55c-5.83-6.63-19.11-26.82-24.53-35.15-32.7,11.49-28.69,47-28.5,48.52a5.67,5.67,0,0,1-4.91,6.33,4.36,4.36,0,0,1-.72,0,5.67,5.67,0,0,1-5.62-4.94,68,68,0,0,1,2.61-26.07c3.93-12.83,13.73-29.49,38.1-36a5.72,5.72,0,0,1,1.47-.2m0-3.45a8.94,8.94,0,0,0-2.36.31c-25.9,7-36.32,24.72-40.51,38.37a71.93,71.93,0,0,0-2.73,27.54,9.12,9.12,0,0,0,18.1-2.31c-.17-1.36-3.69-32.4,23.7-43.88,6.13,9.38,17.83,27,23.31,33.21l.47.55c6.39,7.28,12.43,14.16,37.75,18.78a9,9,0,0,0,1.64.15,9.12,9.12,0,0,0,1.63-18.1c-19.06-3.48-22.16-7-27.29-12.86l-.5-.57c-5.43-6.17-20.27-28.8-25.53-37a9.08,9.08,0,0,0-7.68-4.19Z"/><text class="cls-3" transform="translate(78.27 222.47)"><tspan class="cls-4">W</tspan><tspan x="27.43" y="0">us</tspan><tspan class="cls-5" x="59.15" y="0">h</tspan><tspan x="76.25" y="0">u</tspan></text></svg>